<svg id="Layer_1" data-name="Layer 1" xmlns="http://www.w3.org/2000/svg" viewBox="0 0 32 32"><title>Acid Bomb</title><path d="M2.287,22.612A10.6,10.6,0,0,0,22.7,18.255c0-.008,0-.014.006-.022a.491.491,0,0,0-.009-.067,10.382,10.382,0,0,0-2.232-6.08,1.577,1.577,0,0,0,.427-.56,2.411,2.411,0,0,0-.8-2.516,8.713,8.713,0,0,0-2.628-1.829L18.345,5.1A2.152,2.152,0,0,1,21.162,3.95l.232.1a2.15,2.15,0,0,1,1.148,2.817L21.68,8.913a3.151,3.151,0,0,0,5.808,2.447l.268-.636a.5.5,0,0,0-.922-.389l-.268.636A2.151,2.151,0,1,1,22.6,9.3l.862-2.048a3.156,3.156,0,0,0-1.683-4.128l-.231-.1a3.151,3.151,0,0,0-4.127,1.68l-.878,2.084a8.86,8.86,0,0,0-3.145-.6,2.41,2.41,0,0,0-2.358,1.186,1.58,1.58,0,0,0-.1.7,10.554,10.554,0,0,0-8.608,6.418,10.682,10.682,0,0,0-.749,2.827l0,.011v.005A10.545,10.545,0,0,0,2.287,22.612Zm13.451,4.894A9.6,9.6,0,0,1,2.532,17.923a14.689,14.689,0,0,1,1.77.338,14.443,14.443,0,0,0,3.918.471,14.439,14.439,0,0,0,3.906-.469,13.376,13.376,0,0,1,3.674-.441,13.393,13.393,0,0,1,3.672.441,14.849,14.849,0,0,0,2.246.395A9.622,9.622,0,0,1,15.738,27.506ZM11.964,7.766c.143-.34.69-.555,1.464-.575l.132,0a7.827,7.827,0,0,1,2.6.524l-.65,1.544a.5.5,0,0,0,.922.389L17.08,8.1a7.641,7.641,0,0,1,2.281,1.587c.526.568.754,1.109.612,1.448s-.69.555-1.463.575a8.111,8.111,0,0,1-3.2-.7C13.019,10.05,11.653,8.5,11.964,7.766ZM8.488,9.71a9.527,9.527,0,0,1,2.744-.661,7.458,7.458,0,0,0,3.69,2.888,9.21,9.21,0,0,0,3.459.777l.156,0a4.047,4.047,0,0,0,1.024-.161,9.445,9.445,0,0,1,2.108,5.1,14.188,14.188,0,0,1-1.963-.359,14.4,14.4,0,0,0-3.906-.469,14.463,14.463,0,0,0-3.907.468,13.36,13.36,0,0,1-3.673.442,13.419,13.419,0,0,1-3.685-.443,15.509,15.509,0,0,0-1.879-.358,9.68,9.68,0,0,1,.6-2.05A9.554,9.554,0,0,1,8.488,9.71Z"/><path d="M25.752,9.427a.5.5,0,1,0,.775-.631l-.575-.706a.5.5,0,0,0-.775.631Z"/><path d="M28.607,10.319a.5.5,0,0,0,.493.419.448.448,0,0,0,.081-.006l.9-.146a.5.5,0,1,0-.16-.986l-.9.145A.5.5,0,0,0,28.607,10.319Z"/><path d="M27.768,9.287a.48.48,0,0,0,.177.034A.5.5,0,0,0,28.412,9l.324-.851a.5.5,0,1,0-.933-.356l-.324.852A.5.5,0,0,0,27.768,9.287Z"/><path d="M14.457,20.822a1.37,1.37,0,1,0,1.369,1.37A1.371,1.371,0,0,0,14.457,20.822Zm0,1.739a.37.37,0,1,1,.369-.369A.37.37,0,0,1,14.457,22.561Z"/><path d="M9.722,23a1.8,1.8,0,1,0,1.8,1.8A1.805,1.805,0,0,0,9.722,23Zm0,2.606a.8.8,0,1,1,.8-.8A.8.8,0,0,1,9.722,25.61Z"/><circle cx="16.278" cy="20.333" r="0.5"/><circle cx="17.148" cy="21.964" r="0.5"/><circle cx="7.518" cy="22.464" r="0.5"/></svg>