<svg id="Layer_1" data-name="Layer 1" xmlns="http://www.w3.org/2000/svg" viewBox="0 0 32 32"><defs><style>.cls-1{fill:#383838;}</style></defs><title>Autocannon</title><path class="cls-1" d="M26.144,10.758l.951.209,2.119.012a1.287,1.287,0,0,0,0-2.573H27.2l-1.06.228h-4.26V7.969H16.338v-.95H13.7V8.661h-3.56V7.019H8.5V6.293a1.439,1.439,0,1,0-2.878,0v.686H3.139A1.834,1.834,0,0,0,1.5,8.99v4.382a1.834,1.834,0,0,0,1.639,2.011H5.623v.686a1.439,1.439,0,1,0,2.878,0v-.728h1.884v2.608h-.3a1.64,1.64,0,0,0-1.376.749l-.009.01L5.371,24.125a1.887,1.887,0,0,0-1.42,1.022l-.355.728a.884.884,0,0,0,.794,1.271H9.9a.883.883,0,0,0,.794-1.27l-.354-.728a1.894,1.894,0,0,0-1.246-1l1.752-2.912H12.99l1.752,2.912a1.9,1.9,0,0,0-1.246,1l-.354.727a.884.884,0,0,0,.794,1.271h5.509a.884.884,0,0,0,.794-1.27l-.354-.729a1.893,1.893,0,0,0-1.417-1.022L15.2,18.7c-.008-.011-.013-.022-.021-.033h0l0,0a1.644,1.644,0,0,0-1.354-.715h-.3V15.341h2.814v-.947h5.544v-.657h4.262l.952.208,2.118.012a1.287,1.287,0,0,0,0-2.573H27.2l-1.06.228h-4.26v-.854Zm-23,3.625c-.3,0-.639-.415-.639-1.011V8.99c0-.6.337-1.011.639-1.011H5.623V9.644H4.551a1.13,1.13,0,0,0-1.042,1.22V11.5a1.13,1.13,0,0,0,1.042,1.22H5.623v1.665Zm2.484-3.739v1.078l-1.038,0a.307.307,0,0,1-.076-.228v-.634a1.25,1.25,0,0,1,.042-.22ZM7.5,16.069a.439.439,0,0,1-.878,0V6.293a.439.439,0,0,1,.878,0ZM26.2,9.634l1.061-.228h1.956a.287.287,0,0,1,0,.573H27.256l-.951-.209-4.423-.012V9.634ZM9.708,21.189,7.965,24.084h-1.4l2.179-3.542A1.642,1.642,0,0,0,9.708,21.189Zm-.269,4.4.273.561H4.576l.274-.561a.9.9,0,0,1,.8-.5H8.638A.9.9,0,0,1,9.439,25.585Zm5.713-5.029,2.123,3.528h-1.4l-1.732-2.878A1.647,1.647,0,0,0,15.152,20.556Zm3.834,5.029.273.561H14.123l.272-.56a.9.9,0,0,1,.8-.5h2.988A.9.9,0,0,1,18.986,25.585Zm-4.517-5.992a.645.645,0,0,1-.644.645H10.087a.645.645,0,1,1,0-1.289h3.738A.645.645,0,0,1,14.469,19.593Zm-3.084-1.644v-3.1l0-.012,0-.012V14.3a.57.57,0,0,1,1.139,0v3.648Zm.574-5.212A1.57,1.57,0,0,0,10.385,14.3v.04H8.505V8.019h.637V9.661H14.7V8.019h.632v6.322h-1.81V14.3A1.566,1.566,0,0,0,11.959,12.737ZM26.2,12.612l1.061-.228h1.956a.287.287,0,0,1,0,.573H27.256l-.952-.208-4.422-.012v-.125Zm-5.315-1v1.782h-.964V11.929a.5.5,0,0,0-1,0v1.465H18.3V11.929a.5.5,0,1,0-1,0v1.465h-.959V8.969H17.3v1.464a.5.5,0,0,0,1,0V8.969h.621v1.464a.5.5,0,0,0,1,0V8.969h.964v2.643Z"/></svg>