<svg id="Layer_1" data-name="Layer 1" xmlns="http://www.w3.org/2000/svg" viewBox="0 0 32 32"><defs><style>.cls-1{fill:#383838;}</style></defs><title>Bomber Drone</title><path class="cls-1" d="M30,6.943a15.836,15.836,0,0,0-3.852-.486V6.188a.5.5,0,1,0-1,0v.269a16.033,16.033,0,0,0-3.851.486,16.033,16.033,0,0,0,3.851.486V9a1.575,1.575,0,0,0-.3.139A1.412,1.412,0,0,1,24,9.41c-2.366-.239-5.134-.366-8-.366s-5.635.127-8,.366a1.429,1.429,0,0,1-.837-.273A1.564,1.564,0,0,0,6.852,9V7.43A15.879,15.879,0,0,0,10.7,6.943a15.828,15.828,0,0,0-3.851-.486V6.188a.5.5,0,1,0-1,0v.269A16.034,16.034,0,0,0,2,6.943a16.034,16.034,0,0,0,3.852.486V9a1.677,1.677,0,0,0-.451.227,2.461,2.461,0,0,0-.9,2v1.163a2.117,2.117,0,0,0,1.85,2.3,1.853,1.853,0,0,0,1.606-1.211c.09-.2.274-.374.466-.292a18.166,18.166,0,0,0,3.551,1.08.164.164,0,0,1,.137.159v.98a1.129,1.129,0,0,0,2.238.208,2.2,2.2,0,0,1,.437-.977h2.431a2.2,2.2,0,0,1,.436.977,1.129,1.129,0,0,0,2.238-.208v-.981a.163.163,0,0,1,.137-.158,17.879,17.879,0,0,0,3.545-1.108c.2-.085.381.095.473.3a1.837,1.837,0,0,0,1.6,1.23,2.117,2.117,0,0,0,1.85-2.3V11.228a2.458,2.458,0,0,0-.9-2A1.666,1.666,0,0,0,26.148,9V7.43A15.887,15.887,0,0,0,30,6.943Zm-3.5,5.448c0,.707-.389,1.3-.85,1.3-.247,0-.518-.251-.691-.637a1.364,1.364,0,0,0-1.791-.808,16.9,16.9,0,0,1-3.346,1.043,1.169,1.169,0,0,0-.932,1.137v.981c0,.131-.233.153-.253.03a3.19,3.19,0,0,0-.84-1.65l-.147-.149h-3.3l-.146.149a3.191,3.191,0,0,0-.841,1.65c-.021.122-.253.105-.253-.03v-.98a1.171,1.171,0,0,0-.934-1.138,17.139,17.139,0,0,1-3.355-1.018,1.362,1.362,0,0,0-1.777.8c-.17.377-.442.621-.694.621-.461,0-.85-.6-.85-1.3V11.228A1.509,1.509,0,0,1,6,10.035a.568.568,0,0,1,.526-.1.606.606,0,0,1,.13.061A2.324,2.324,0,0,0,8.1,10.4c2.334-.235,5.066-.36,7.9-.36s5.567.125,7.9.36A2.354,2.354,0,0,0,25.35,10a.5.5,0,0,1,.124-.059.562.562,0,0,1,.53.1,1.508,1.508,0,0,1,.5,1.192Z"/><path class="cls-1" d="M19.6,17.545h-1.86a1.828,1.828,0,0,0-3.474,0H12.4a.88.88,0,0,0-.88.879,1.87,1.87,0,0,0,1.43,1.822l.049.012V22.7c0,1.24,1.167,3.614,3,3.614s3-2.374,3-3.614v-2.44l.05-.012a1.87,1.87,0,0,0,1.43-1.822A.88.88,0,0,0,19.6,17.545ZM18,22.7c0,.883-.9,2.614-2,2.614s-2-1.731-2-2.614V20.5l1.346.33a2.726,2.726,0,0,0,1.3,0L18,20.5Zm.812-3.423-2.395.587a1.726,1.726,0,0,1-.827,0l-2.395-.587a.874.874,0,0,1-.659-.73h2.536l.069-.419a.863.863,0,0,1,1.725,0l.069.419h2.537A.876.876,0,0,1,18.809,19.275Z"/></svg>