<svg id="Layer_1" data-name="Layer 1" xmlns="http://www.w3.org/2000/svg" viewBox="0 0 32 32"><title>Boomerang</title><path d="M6.776,6.915,19.481,9.809a3.613,3.613,0,0,1,2.71,2.71l2.893,12.705a2.729,2.729,0,0,0,2.475,2.126c.067,0,.133.007.2.007a2.745,2.745,0,0,0,2.718-3.094L28.3,7.422A4.317,4.317,0,0,0,24.577,3.7L7.737,1.523a2.742,2.742,0,0,0-.961,5.392ZM8.9,4.73a7.172,7.172,0,0,1,.477-1.987l2.38.308a8.087,8.087,0,0,0-.543,2.329,8.413,8.413,0,0,0,.024,1.525L8.956,6.386A7.158,7.158,0,0,1,8.9,4.73Zm20.36,17.9a6.87,6.87,0,0,1-3.644.418L25.1,20.783q.389.037.789.038.363,0,.734-.032a8.064,8.064,0,0,0,2.328-.544Zm-.234,3.185A1.741,1.741,0,0,1,26.059,25l-.207-.907q.375.036.761.036.367,0,.743-.032a8.254,8.254,0,0,0,2.035-.432l.094.726A1.727,1.727,0,0,1,29.023,25.811ZM27.307,7.551l1.508,11.656a6.9,6.9,0,0,1-2.278.586,7.449,7.449,0,0,1-1.678-.062L23.166,12.3A4.621,4.621,0,0,0,19.7,8.834L12.269,7.141a7.275,7.275,0,0,1-.062-1.676,6.9,6.9,0,0,1,.586-2.279L24.448,4.694A3.315,3.315,0,0,1,27.307,7.551ZM6.188,2.977a1.725,1.725,0,0,1,1.42-.462l.726.094A8.347,8.347,0,0,0,7.9,4.644a8.306,8.306,0,0,0,.022,1.507L7,5.941a1.742,1.742,0,0,1-.811-2.964Z"/><path d="M8.1,24.609,19.15,13.557a.5.5,0,1,0-.707-.707L7.392,23.9a.5.5,0,0,0,.707.707Z"/><path d="M7.978,28.361a.5.5,0,0,0,.353-.147L19.383,17.163a.5.5,0,0,0-.707-.707L7.624,27.507a.5.5,0,0,0,.354.854Z"/><path d="M2.6,26.064a.5.5,0,0,0,.353-.147L14,14.865a.5.5,0,0,0-.707-.707L2.244,25.21a.5.5,0,0,0,.354.854Z"/><path d="M2,30.5a.5.5,0,0,0,.354-.146L5.8,26.906a.5.5,0,0,0-.707-.707L1.646,29.647A.5.5,0,0,0,2,30.5Z"/></svg>