<svg id="Layer_1" data-name="Layer 1" xmlns="http://www.w3.org/2000/svg" viewBox="0 0 32 32"><defs><style>.cls-1{fill:#383838;}</style></defs><title>Death Ray</title><path class="cls-1" d="M11.825,5.531l6.68-.425L11.73,1.557a.5.5,0,1,0-.464.886l3.612,1.892-4.883.311L27.763,30.285a.5.5,0,0,0,.822-.57Z"/><path class="cls-1" d="M4.744,8.495,6.068,3.186a.5.5,0,1,0-.97-.243l-2.19,8.783,4.23-4.2L9.626,26.959a.5.5,0,0,0,.5.437.473.473,0,0,0,.065,0,.5.5,0,0,0,.432-.56L7.872,5.392Z"/><path class="cls-1" d="M8.612,3.731l3.569,10.118L9.086,12.565l8.536,15.91-2.665-9.967,4.3,2.238Zm5.819,16.681-3.138-5.849,2.577,1.069-1.3-3.692,3.895,6.224L13.4,16.572Z"/></svg>