<svg id="Layer_1" data-name="Layer 1" xmlns="http://www.w3.org/2000/svg" viewBox="0 0 32 32"><defs><style>.cls-1{fill:#383838;}</style></defs><title>Explosive Laser</title><path class="cls-1" d="M28.841,10.687l-4.061-.01,4.251-7.708L21.323,7.22l-.01-4.061L18.05,6.422,14.244.484l-.6,7.333L9.138,5.479l2.469,4.362-7.351.706L10.8,14.866l-3.735,1.45,4.065,1.555-9.459,8.35a.5.5,0,0,0,.662.75L15.182,15.628h0a.491.491,0,0,0,.259-.229l1.306-1.153a.5.5,0,1,0-.663-.75l-.872.77-.595-1.611,1.6-.369.2-.047-.093-.163-1-1.761.655,1.693-1.8.145-.311.025.073.348.507,2.413-2.476,2.186L9.843,16.31,12.964,15.1l-5.8-3.826,6.068-.583L11.668,7.919,14.518,9.4,15,3.516l2.879,4.492,2.441-2.441.008,3.344,6.158-3.4-3.4,6.158,3.344.008-2.441,2.441L28.484,17l-5.881.481,1.478,2.85-2.769-1.569-.583,6.068L16.9,19.036,15.69,22.157l-.814-2.131,2.186-2.476,2.413.507.348.073.025-.311.145-1.8,1.693.655-1.761-1-.163-.093-.047.2-.369,1.6-1.611-.6.77-.872a.5.5,0,1,0-.75-.663L16.6,16.558a.48.48,0,0,0-.211.239L5.029,29.669a.5.5,0,0,0,.75.662l8.35-9.459,1.555,4.065,1.45-3.735,4.319,6.542.706-7.351,4.362,2.469-2.338-4.506,7.333-.6L25.578,13.95Z"/></svg>