<svg id="Layer_1" data-name="Layer 1" xmlns="http://www.w3.org/2000/svg" viewBox="0 0 32 32"><title>Freeze Effect</title><path d="M3.442,23.206a.5.5,0,0,0,.434.25.488.488,0,0,0,.249-.067l5.152-2.974L7.961,25.326a.5.5,0,0,0,.354.613.578.578,0,0,0,.13.016.5.5,0,0,0,.482-.371L10.5,19.708l4.973-2.871v5.8l-4.3,4.3a.5.5,0,1,0,.707.707l3.595-3.595V30a.5.5,0,0,0,1,0V24.052l3.595,3.595a.5.5,0,1,0,.707-.707l-4.3-4.3v-5.8l5.023,2.9,1.575,5.876a.5.5,0,0,0,.482.372.527.527,0,0,0,.13-.017.5.5,0,0,0,.354-.612l-1.316-4.912,5.152,2.974a.489.489,0,0,0,.249.068.5.5,0,0,0,.251-.933l-5.153-2.975,4.912-1.315a.5.5,0,0,0-.259-.967L22,18.871l-5.023-2.9L22,13.071l5.878,1.575a.578.578,0,0,0,.13.016.5.5,0,0,0,.129-.983l-4.912-1.315,5.153-2.975a.5.5,0,1,0-.5-.865L22.723,11.5l1.316-4.912a.5.5,0,0,0-.354-.612.507.507,0,0,0-.612.354L21.5,12.205l-5.023,2.9V9.363l4.3-4.3a.5.5,0,1,0-.707-.707l-3.595,3.6V2a.5.5,0,0,0-1,0V7.948L11.88,4.354a.5.5,0,1,0-.707.707l4.3,4.3v5.742L10.5,12.234,8.927,6.357a.5.5,0,1,0-.966.259l1.316,4.911L4.125,8.553a.5.5,0,1,0-.5.865l5.152,2.974L3.866,13.708A.5.5,0,0,0,4,14.692a.527.527,0,0,0,.13-.017L10,13.1l4.973,2.872L10,18.842,4.125,17.267a.507.507,0,0,0-.612.354.5.5,0,0,0,.353.613l4.912,1.315L3.625,22.524A.5.5,0,0,0,3.442,23.206Z"/></svg>