<svg id="Layer_1" data-name="Layer 1" xmlns="http://www.w3.org/2000/svg" viewBox="0 0 32 32"><defs><style>.cls-1{fill:#383838;}</style></defs><title>Laser Drone</title><path class="cls-1" d="M26.265,4.984a3.439,3.439,0,0,0,1.867.5A3.484,3.484,0,0,0,30,4.984a3.484,3.484,0,0,0-1.868-.5A3.448,3.448,0,0,0,26.265,4.984Z"/><path class="cls-1" d="M27.018,3.165a3.482,3.482,0,0,0-1.867-.5,3.441,3.441,0,0,0-1.868.5,3.434,3.434,0,0,0,1.868.5A3.474,3.474,0,0,0,27.018,3.165Z"/><path class="cls-1" d="M27.643,6.492c-1.063,1.715-1.924,2.2-2.384,2.324a.435.435,0,0,1-.037-.257L25.7,5.114l.033-.515L24.8,4.426l-.14.436A11.733,11.733,0,0,1,24.236,6,3.454,3.454,0,0,1,22.35,7.951a2.274,2.274,0,0,1-1.826-.124c-.693-.349-1.284-.643-1.784-.891a6.13,6.13,0,0,0-5.48,0c-.5.248-1.091.542-1.784.891a2.278,2.278,0,0,1-1.826.124A3.454,3.454,0,0,1,7.764,6a11.888,11.888,0,0,1-.427-1.133L7.161,4.4l-.927.262.544,3.9a.435.435,0,0,1-.037.257c-.46-.128-1.321-.609-2.384-2.324L4.1,6.13l-.79.335.06.4A20.008,20.008,0,0,0,5.7,12.887a1.51,1.51,0,0,0,1.265.766h4.98c.065,1.08,1.212,1.954,2.819,2.258l2.524,5.052-3.172.4,1.573,1.479-3.7,1.921,4.454,1.122-1.624,3.322,4.261-2.242L22.5,29.857l.294-4.467,4.571-1.507-3.517-1.14,2.287-3.984-3.955,1.33L22.2,17.93l-2.491,2L18.2,15.647a2.523,2.523,0,0,0,1.852-1.994h4.981a1.508,1.508,0,0,0,1.265-.767,20.014,20.014,0,0,0,2.328-6.02l.031-.459-.8-.26ZM19.948,23.606a.5.5,0,0,0,.472.335.473.473,0,0,0,.165-.028.5.5,0,0,0,.307-.637l-.826-2.341,1.11-.894-.019,1.446,2.793-.94-1.588,2.766,1.78.578-2.308.76-.207,3.161-2.419-2.046L17.06,26.9l.82-1.679-3.093-.78L17.4,23.08l-1.054-.99,1.412-.178,1.111,2.223a.5.5,0,0,0,.447.276.478.478,0,0,0,.223-.053.5.5,0,0,0,.224-.67l-3.823-7.656c.019,0,.036,0,.056,0a6.574,6.574,0,0,0,1.234-.124ZM16,15.035c-1.727,0-2.941-.709-3.049-1.382h6.1C18.94,14.326,17.726,15.035,16,15.035Zm9.452-2.681a.541.541,0,0,1-.418.3H6.966a.541.541,0,0,1-.418-.3,17.231,17.231,0,0,1-1.6-3.507,3.577,3.577,0,0,0,1.658.965A.876.876,0,0,0,7.4,9.586,1.344,1.344,0,0,0,7.768,8.42l-.1-.693A3.915,3.915,0,0,0,9.312,8.892a3.28,3.28,0,0,0,2.613-.172c.692-.348,1.28-.642,1.778-.888a5.143,5.143,0,0,1,4.594,0c.5.246,1.086.54,1.778.888a3.28,3.28,0,0,0,2.613.172,3.915,3.915,0,0,0,1.641-1.165l-.1.693a1.344,1.344,0,0,0,.373,1.166.866.866,0,0,0,.789.226,3.577,3.577,0,0,0,1.658-.965A17.231,17.231,0,0,1,25.452,12.354Z"/><path class="cls-1" d="M2,4.984a3.484,3.484,0,0,0,1.868.5,3.439,3.439,0,0,0,1.867-.5,3.448,3.448,0,0,0-1.867-.5A3.484,3.484,0,0,0,2,4.984Z"/><path class="cls-1" d="M8.717,3.165a3.441,3.441,0,0,0-1.868-.5,3.482,3.482,0,0,0-1.867.5,3.474,3.474,0,0,0,1.867.5A3.434,3.434,0,0,0,8.717,3.165Z"/><path class="cls-1" d="M16,8.868a.5.5,0,0,0-.5.5v.89a.5.5,0,0,0,1,0v-.89A.5.5,0,0,0,16,8.868Z"/><path class="cls-1" d="M18.669,9.038a.5.5,0,0,0-.752.66l.781.89a.5.5,0,1,0,.752-.66Z"/><path class="cls-1" d="M13.331,9.038l-.781.89a.5.5,0,0,0,.752.66l.781-.89a.5.5,0,0,0-.752-.66Z"/></svg>