<svg id="Layer_1" data-name="Layer 1" xmlns="http://www.w3.org/2000/svg" viewBox="0 0 32 32"><defs><style>.cls-1{fill:#383838;}</style></defs><title>Sonic Ray</title><path class="cls-1" d="M10.9,16A5.1,5.1,0,0,0,13.113,20.2a.5.5,0,1,0,.567-.824,4.1,4.1,0,0,1,0-6.762.5.5,0,1,0-.567-.823A5.107,5.107,0,0,0,10.9,16Z"/><path class="cls-1" d="M20.1,16a4.1,4.1,0,0,1-1.78,3.381.5.5,0,0,0,.567.824,5.1,5.1,0,0,0,0-8.409.5.5,0,1,0-.567.823A4.106,4.106,0,0,1,20.1,16Z"/><path class="cls-1" d="M9.02,16a6.975,6.975,0,0,0,3.029,5.755.5.5,0,1,0,.566-.824,5.982,5.982,0,0,1,0-9.862.5.5,0,0,0-.566-.824A6.987,6.987,0,0,0,9.02,16Z"/><path class="cls-1" d="M21.98,16a5.978,5.978,0,0,1-2.595,4.931.5.5,0,1,0,.566.824,6.982,6.982,0,0,0,0-11.51.5.5,0,1,0-.566.824A5.987,5.987,0,0,1,21.98,16Z"/><path class="cls-1" d="M7.142,16A8.869,8.869,0,0,0,10.985,23.3a.494.494,0,0,0,.284.089.5.5,0,0,0,.283-.912,7.861,7.861,0,0,1,0-12.959.5.5,0,1,0-.567-.825A8.861,8.861,0,0,0,7.142,16Z"/><path class="cls-1" d="M23.858,16a7.876,7.876,0,0,1-3.41,6.482.5.5,0,0,0,.283.912.494.494,0,0,0,.284-.089,8.862,8.862,0,0,0,0-14.607.5.5,0,0,0-.567.825A7.856,7.856,0,0,1,23.858,16Z"/><path class="cls-1" d="M5.26,16a10.742,10.742,0,0,0,4.661,8.856.5.5,0,0,0,.566-.825,9.739,9.739,0,0,1,0-16.058.5.5,0,0,0-.566-.825A10.739,10.739,0,0,0,5.26,16Z"/><path class="cls-1" d="M25.74,16a9.742,9.742,0,0,1-4.227,8.031.5.5,0,0,0,.566.825,10.74,10.74,0,0,0,0-17.708.5.5,0,0,0-.566.825A9.739,9.739,0,0,1,25.74,16Z"/><path class="cls-1" d="M3.382,16A12.636,12.636,0,0,0,8.856,26.4a.5.5,0,1,0,.567-.824,11.623,11.623,0,0,1,0-19.16A.5.5,0,1,0,8.856,5.6,12.621,12.621,0,0,0,3.382,16Z"/><path class="cls-1" d="M27.618,16a11.635,11.635,0,0,1-5.041,9.582.5.5,0,0,0,.567.824,12.624,12.624,0,0,0,0-20.808.5.5,0,1,0-.567.824A11.621,11.621,0,0,1,27.618,16Z"/><path class="cls-1" d="M7.793,27.954a.5.5,0,1,0,.566-.824,13.5,13.5,0,0,1,0-22.26.5.5,0,1,0-.566-.824,14.5,14.5,0,0,0,0,23.908Z"/><path class="cls-1" d="M29.5,16A13.511,13.511,0,0,1,23.641,27.13a.5.5,0,1,0,.566.824,14.5,14.5,0,0,0,0-23.908.5.5,0,1,0-.566.824A13.508,13.508,0,0,1,29.5,16Z"/><path class="cls-1" d="M16,18.72A2.721,2.721,0,1,0,13.279,16,2.72,2.72,0,0,0,16,18.72Z"/></svg>