<svg id="Layer_1" data-name="Layer 1" xmlns="http://www.w3.org/2000/svg" viewBox="0 0 32 32"><title>asic Laser</title><path d="M29.886,13.782l-5.311,1.241a3.373,3.373,0,0,0-.514-1.03l5.6-5.633a.5.5,0,1,0-.709-.7l-5.6,5.631c-.081-.06-.164-.115-.25-.168L24.7,9.323a.5.5,0,1,0-.922-.387L22.183,12.73a3.342,3.342,0,0,0-.334-.066V4.724a.5.5,0,0,0-1,0v7.953c-.094.014-.191.013-.283.035L19.009,8.849a.5.5,0,0,0-.928.373l1.559,3.866a3.319,3.319,0,0,0-.285.206L13.49,7.586a.5.5,0,1,0-.7.717L18.646,14c-.047.063-.106.112-.148.178a.5.5,0,1,0,.842.537,2.385,2.385,0,0,1,4.214,2.194c0,.007-.01.011-.012.018s0,.014-.005.021a2.386,2.386,0,0,1-4.208.327.5.5,0,1,0-.843.537c.046.073.111.128.163.2l-5.6,5.621a.5.5,0,0,0,.354.853.493.493,0,0,0,.354-.148l5.6-5.624c.077.057.15.119.231.168L18,22.665a.5.5,0,1,0,.922.387l1.583-3.772c.11.028.228.026.342.043v7.953a.5.5,0,0,0,1,0v-7.94c.1-.015.2-.03.292-.053L23.7,23.152a.5.5,0,0,0,.464.312.493.493,0,0,0,.187-.036.5.5,0,0,0,.276-.651L23.067,18.9a3.392,3.392,0,0,0,1.161-1.142l3.738,1.586a.5.5,0,1,0,.391-.92l-3.74-1.586a3.321,3.321,0,0,0,.117-.826l5.38-1.258a.5.5,0,0,0-.228-.974Z"/><path d="M20.44,16.881a1.253,1.253,0,1,0,0-1.771,1.228,1.228,0,0,0-.256.385H2a.5.5,0,0,0,0,1H20.184A1.232,1.232,0,0,0,20.44,16.881Z"/></svg>